<?xml version="1.0" standalone="no"?>
<!DOCTYPE svg PUBLIC "-//W3C//DTD SVG 1.1//EN" "http://www.w3.org/Graphics/SVG/1.1/DTD/svg11.dtd" >
<svg xmlns="http://www.w3.org/2000/svg">
<metadata></metadata>
<defs>
<font id="harabararegular" horiz-adv-x="1380" >
<font-face units-per-em="2048" ascent="1636" descent="-412" />
<missing-glyph horiz-adv-x="460" />
<glyph horiz-adv-x="2048" />
<glyph horiz-adv-x="2048" />
<glyph unicode="&#xd;" horiz-adv-x="2048" />
<glyph unicode=" "  horiz-adv-x="460" />
<glyph unicode="&#x09;" horiz-adv-x="460" />
<glyph unicode="&#xa0;" horiz-adv-x="460" />
<glyph unicode="!" horiz-adv-x="296" d="M0 1232q0 60 42 102t102 42h140l-48 -988h-188zM4 0v172q0 104 104 104h172v-276h-276z" />
<glyph unicode="&#x22;" horiz-adv-x="688" d="M0 904v224q0 120 64 192t192 96v-48q0 -24 -12 -36t-48 -36q-20 -8 -44 -32q-32 -36 -36 -88q0 -12 4 -24t40 -12h92v-148q0 -88 -92 -88h-160zM400 904v224q0 120 64 192t192 96v-48q0 -36 -64 -72q-24 -12 -44 -32q-28 -32 -32 -88q-12 -36 40 -36h4h92v-148 q0 -88 -96 -88h-156z" />
<glyph unicode="#" horiz-adv-x="1596" d="M0 332l44 132q16 52 66 90t102 38h176l64 196h-300l44 132q16 48 66 86t102 42h176l112 328h80q112 0 126 -74t2 -122l-48 -132h188l112 328h84q120 0 128 -74t-4 -122l-44 -132h244l-88 -260h-244l-64 -196h244l-84 -260h-248l-112 -332h-272l108 332h-184l-112 -332 h-276l112 332h-300zM660 592h188l64 196h-184z" />
<glyph unicode="$" horiz-adv-x="1132" d="M-24 436h272q16 -120 92 -168q44 -32 112 -44v368h-4l-8 4q-4 0 -12 2t-16 2q-196 40 -272 96q-68 36 -112 124q-32 68 -32 184q0 204 132 304q108 88 324 104v172h4q60 0 102 -42t42 -102v-28q184 -20 292 -108q132 -116 140 -320h-160q-92 0 -128 84q-16 32 -56 68 q-48 28 -88 40v-340q72 -24 122 -36t82 -24q60 -20 112 -48q76 -44 124 -120q40 -76 40 -184q0 -212 -144 -332q-116 -92 -336 -108v-172h-148v172q-204 12 -324 112q-136 116 -152 340zM264 1020q0 -104 188 -148v312q-84 -8 -128 -40q-60 -44 -60 -124zM600 216 q84 4 144 44t60 128q0 92 -204 164v-336z" />
<glyph unicode="%" horiz-adv-x="1332" d="M0 1044q0 116 82 198t202 82q116 0 200 -82t84 -198q0 -120 -84 -202t-200 -82q-120 0 -202 82t-82 202zM124 0l764 1320q24 44 58 50t78 6h124l-796 -1376h-228zM144 1044q0 -60 40 -100t100 -40q56 0 98 40t42 100q0 56 -42 96t-98 40q-60 0 -100 -40t-40 -96zM708 336 q0 -120 80 -202t200 -82t202 82t82 202q0 116 -82 200t-202 84t-200 -84t-80 -200zM852 336q0 56 38 98t98 42t100 -42t40 -98q0 -60 -40 -100t-100 -40t-98 40t-38 100z" />
<glyph unicode="&#x26;" horiz-adv-x="1264" d="M-24 364q0 132 64 228q68 96 224 180l-56 72q-44 52 -60 104q-20 52 -20 104q0 152 100 236q96 92 260 92q156 0 248 -84q92 -80 92 -220q0 -108 -52 -188q-60 -84 -172 -152l200 -244q24 44 44 100q12 76 20 128h144q64 0 76 -36t8 -68q-12 -56 -32 -120 q-48 -108 -112 -192l252 -304h-320l-92 116q-44 -40 -88 -72t-92 -44q-132 -28 -276 -16t-244 92q-116 108 -116 288zM240 384q0 -76 56 -132t136 -56q56 0 116 24q48 20 100 72l-248 312l-72 -52q-48 -36 -64 -72q-24 -44 -24 -96zM372 1076q0 -16 16 -56q4 -20 16 -36 l24 -32l44 -56l36 24q44 32 64 68q24 40 24 88t-32 76q-28 28 -80 28t-80 -28q-32 -32 -32 -76z" />
<glyph unicode="'" horiz-adv-x="392" d="M0 1164l112 204q8 12 28 30t56 18h180l-244 -252h-132z" />
<glyph unicode="(" horiz-adv-x="520" d="M-24 676q0 216 80 436q56 160 160 320q72 112 170 118t110 6q-132 -220 -188 -424q-64 -216 -64 -456q0 -248 64 -456q56 -208 188 -424h-196q-164 220 -244 444q-80 208 -80 436z" />
<glyph unicode=")" horiz-adv-x="552" d="M0 -200q128 216 192 420q60 220 60 456q0 240 -60 456q-68 220 -192 428h196q164 -232 248 -448q84 -224 84 -436q0 -208 -84 -436q-56 -152 -164 -316q-72 -112 -170 -118t-110 -6z" />
<glyph unicode="*" horiz-adv-x="480" d="M0 1200l16 48q12 52 64 40l96 -28v100q0 52 56 52h48v-152l100 28q48 16 64 -40l16 -48l-144 -40l56 -80q28 -48 -16 -76l-44 -28l-84 120l-56 -76q-36 -44 -76 -8l-40 28l84 120z" />
<glyph unicode="+" horiz-adv-x="948" d="M0 440v96q0 88 88 88h272v360h96q88 0 88 -88v-272h360v-184h-360v-360h-184v360h-360z" />
<glyph unicode="," horiz-adv-x="232" d="M0 -208q0 32 56 64q20 12 36 32q28 44 28 84q8 28 -36 28h-80v136q0 84 84 84h136v-212q0 -100 -56 -176q-64 -64 -168 -84v44z" />
<glyph unicode="-" horiz-adv-x="576" d="M0 420v116q0 108 108 108h444v-224h-552z" />
<glyph unicode="." horiz-adv-x="228" d="M0 0v136q0 84 84 84h136v-220h-220z" />
<glyph unicode="/" horiz-adv-x="588" d="M0 0l404 1380h156l-388 -1328q-16 -52 -72 -52h-100z" />
<glyph unicode="0" horiz-adv-x="1044" d="M-24 688q0 396 152 568q124 144 356 144q224 0 360 -148q152 -172 152 -564q0 -400 -156 -568q-124 -140 -356 -140t-372 152q-136 152 -136 556zM260 688q0 -152 30 -284t98 -176q44 -32 96 -32q48 0 100 32q60 44 92 176t32 280t-34 280t-94 180q-40 32 -96 32 q-60 0 -100 -32q-60 -48 -92 -178t-32 -278z" />
<glyph unicode="1" horiz-adv-x="560" d="M0 928v200q88 0 182 58t130 190h80q60 0 102 -40t42 -100v-1236h-276v928h-260z" />
<glyph unicode="2" horiz-adv-x="1024" d="M-24 0q0 192 92 340q84 136 252 252q12 8 36 22t56 34q132 84 204 156t72 152q0 96 -56 148q-56 56 -152 56q-108 0 -168 -68q-56 -72 -56 -188v-12h-144q-84 0 -98 46t-6 102q28 132 116 228q132 128 372 128q224 0 352 -116q128 -124 128 -320q0 -148 -68 -244 q-72 -108 -264 -236q-68 -48 -170 -112t-114 -124h604v-244h-988z" />
<glyph unicode="3" horiz-adv-x="1036" d="M-24 432v4h268q0 -116 56 -172q60 -60 168 -60q112 0 164 56q60 52 60 156q0 100 -68 156q-64 52 -204 52h-10h-10q-8 0 -14 -2l-6 -2v192h28q124 0 184 48t60 144q0 76 -52 128q-44 44 -136 44q-100 0 -144 -52q-52 -52 -52 -156v-8h-144q-84 0 -100 46t-4 98 q28 108 108 180q128 116 348 116q212 0 336 -104q128 -104 128 -272q0 -92 -44 -160q-48 -72 -128 -112q108 -52 164 -128q56 -80 56 -196q0 -212 -140 -332q-136 -116 -380 -116t-368 116q-124 112 -124 336z" />
<glyph unicode="4" horiz-adv-x="1092" d="M0 308v248l524 820h208q60 0 100 -42t44 -98v-84v-620h164v-224h-164v-308h-276v308h-600zM220 524h384v608z" />
<glyph unicode="5" horiz-adv-x="1036" d="M-24 400h272q4 -96 64 -148q52 -48 148 -48q116 0 176 64q60 72 60 196q0 120 -64 184q-60 68 -172 68q-60 0 -108 -24q-52 -28 -76 -72l-256 12l92 748h672q56 -4 98 -44t42 -100v-84v-12h-612l-36 -268q36 32 104 52q64 20 136 20q212 0 340 -128q132 -132 132 -340 q0 -228 -144 -364q-140 -132 -384 -132q-228 0 -352 108q-124 112 -132 312z" />
<glyph unicode="6" horiz-adv-x="1044" d="M-24 656q0 364 140 552q144 192 412 192q188 0 304 -96q112 -100 128 -260h-208q-40 0 -62 24t-46 52q-24 20 -56 40t-92 20q-104 0 -164 -92q-60 -88 -64 -272q44 44 116 72q84 28 152 28q204 0 336 -124q124 -132 124 -328q0 -216 -136 -356q-136 -128 -364 -128 q-260 0 -392 168q-128 168 -128 508zM272 456q0 -116 60 -188q56 -68 164 -68q104 0 156 68q56 68 56 188q0 112 -60 172q-56 60 -160 60q-100 0 -160 -60q-56 -64 -56 -172z" />
<glyph unicode="7" horiz-adv-x="1104" d="M0 1136v240h912q108 0 124 -78t-32 -134q-116 -132 -206 -266t-150 -278q-132 -300 -148 -620h-296q8 280 140 576q116 276 352 560h-696z" />
<glyph unicode="8" horiz-adv-x="1040" d="M-24 408q0 112 40 188q44 80 152 140l12 4q-4 0 -10 2t-6 6q-68 36 -112 104q-44 72 -44 176t60 192q16 36 44 56q4 4 10 8t10 8q56 44 138 74t194 30l16 4h4l12 -4q112 0 194 -30t138 -74q16 -8 20 -16q20 -16 48 -56q60 -88 58 -192t-46 -176q-40 -68 -112 -104 q-4 -4 -8 -6l-4 -2l12 -4q104 -60 152 -140q44 -84 44 -188q0 -208 -136 -320q-132 -108 -368 -108h-4h-4h-4q-240 0 -372 108q-128 108 -128 320zM260 416q0 -96 60 -156q44 -48 120 -52h4h4q8 -4 28 -4h4h4h4q20 0 28 4h4h4q64 4 120 52q60 60 60 156q0 64 -32 112 q-60 100 -188 100h-4q-136 0 -192 -100q-28 -40 -28 -112zM280 1008q0 -72 46 -118t154 -46q104 0 152 46t48 118q0 68 -52 118t-148 50t-148 -50t-52 -118z" />
<glyph unicode="9" horiz-adv-x="1044" d="M-24 912q0 332 276 444q100 44 216 44q260 0 396 -176q132 -176 132 -508q0 -356 -144 -548q-144 -188 -416 -188q-192 0 -300 92q-36 28 -72 72t-36 104q0 80 96 80h172q8 -68 52 -100q48 -32 124 -32q100 0 164 92q56 96 64 272q-44 -44 -116 -76q-56 -20 -152 -20 q-212 0 -336 120q-120 120 -120 328zM256 924q0 -112 60 -176q56 -64 164 -64q100 0 156 64q36 36 50 108t-2 142t-68 124t-148 54q-60 0 -98 -22t-54 -46q-60 -72 -60 -184z" />
<glyph unicode=":" horiz-adv-x="228" d="M0 136v140q0 80 84 80h136v-220h-220zM0 708v136q0 84 84 84h136v-220h-220z" />
<glyph unicode=";" horiz-adv-x="232" d="M0 -208q0 32 56 64q20 12 36 32q28 44 28 84q8 28 -36 28h-80v136q0 84 84 84h136v-212q0 -100 -56 -176q-64 -64 -168 -84v44zM4 568v140q0 80 84 80h136v-220h-220z" />
<glyph unicode="&#x3c;" horiz-adv-x="876" d="M-24 688q0 96 80 136l780 428v-156q0 -16 -12 -42t-36 -38l-556 -304q-32 -24 0 -48l604 -324v-212l-784 424q-76 44 -76 136z" />
<glyph unicode="=" horiz-adv-x="948" d="M0 436v96q0 88 88 88h816v-184h-904zM0 748v96q0 88 88 88h816v-184h-904z" />
<glyph unicode="&#x3e;" horiz-adv-x="904" d="M0 128v156q0 12 10 40t34 40l560 300q32 24 0 48l-604 328v212l780 -428q84 -44 84 -136t-84 -132z" />
<glyph unicode="?" horiz-adv-x="936" d="M-24 1068q0 60 30 122t78 106q84 76 220 104t268 -4t226 -128t94 -264q0 -132 -54 -204t-118 -122t-118 -100t-50 -142v-20v-16h-252q0 132 22 206t142 170q60 48 102 96t42 120q0 160 -134 180t-194 -52q-52 -56 -56 -168q-108 0 -178 4t-70 112zM292 0v172 q0 104 100 104h176v-276h-276z" />
<glyph unicode="@" horiz-adv-x="1816" d="M-24 512q0 148 44 300q48 148 148 256q128 164 332 260q204 88 436 88q148 0 300 -44q136 -44 240 -120q124 -100 192 -228q64 -136 64 -284q0 -152 -64 -284q-64 -136 -176 -224q-68 -56 -144 -84q-92 -28 -164 -28q-96 0 -148 40q-52 44 -52 120q-48 -76 -120 -120 q-68 -36 -160 -36q-144 0 -224 80q-80 84 -80 240q0 224 132 376q128 152 324 152q76 0 128 -28q56 -36 92 -92l52 92q128 0 130 -64t-2 -80l-100 -420q-4 -8 -4 -20q-4 -8 -4 -16q0 -36 24 -52q20 -16 68 -16q28 0 76 20q48 24 76 52q80 80 120 176q44 104 44 220 q0 224 -176 372q-176 144 -448 144q-148 0 -248 -32q-112 -32 -208 -96q-156 -100 -244 -268q-88 -156 -88 -352q0 -288 196 -460q192 -168 520 -168q144 0 296 44q72 24 140 54t132 78q16 -28 2 -100t-86 -108t-144 -60q-152 -56 -336 -56q-176 0 -332 44q-156 48 -272 136 q-148 116 -216 260q-68 148 -68 336zM600 440q0 -80 40 -132q36 -44 108 -44q76 0 144 60q60 48 88 152l52 204q-16 76 -56 116t-108 40q-112 0 -188 -116q-80 -120 -80 -280z" />
<glyph unicode="A" d="M0 0l456 1284q36 92 136 92h224l500 -1376h-300l-92 284h-536l-88 -284h-300zM464 516h384l-192 584z" />
<glyph unicode="B" horiz-adv-x="1184" d="M0 0v1232q0 60 42 102t102 42h504q212 0 324 -88q112 -96 112 -260q0 -104 -44 -176q-44 -68 -124 -108q104 -44 160 -124q52 -76 52 -200q0 -200 -128 -312q-132 -108 -372 -108h-628zM272 248h336q112 0 172 44q56 40 56 136t-56 140q-52 40 -176 40h-332v-360z M272 844h324q104 0 152 36t48 112t-48 112q-40 32 -156 32h-320v-292z" />
<glyph unicode="C" horiz-adv-x="1288" d="M-24 688q0 360 168 540q172 188 496 188q264 0 420 -132q148 -128 168 -360h-172q-96 0 -136 84q-28 52 -68 92q-80 60 -212 60q-184 0 -284 -120q-96 -120 -96 -352q0 -224 96 -344q92 -124 276 -124q128 0 212 64q76 60 108 192h276q-20 -240 -180 -376 q-164 -132 -432 -132q-312 0 -476 188q-164 180 -164 532z" />
<glyph unicode="D" horiz-adv-x="1224" d="M0 0v1232q0 60 42 102t102 42h396q316 0 472 -168q156 -176 156 -520q0 -184 -56 -332q-64 -152 -168 -232q-88 -68 -188 -96q-96 -28 -292 -28h-464zM276 248h228q196 0 288 104q88 96 88 336q0 232 -84 340q-80 108 -256 108h-264v-888z" />
<glyph unicode="E" horiz-adv-x="1048" d="M0 0v1232q0 60 42 102t102 42h856v-236h-720v-296h536v-92q0 -60 -42 -102t-102 -42h-392v-352h720v-256h-1000z" />
<glyph unicode="F" horiz-adv-x="1048" d="M0 0v1232q0 60 42 102t102 42h856v-236h-720v-296h536v-92q0 -60 -42 -102t-102 -42h-392v-608h-280z" />
<glyph unicode="G" horiz-adv-x="1308" d="M-24 692q0 332 172 524q180 200 476 200q256 0 424 -124q164 -132 196 -344h-192q-84 0 -124 76q-28 48 -80 88q-80 56 -212 56q-172 0 -272 -124q-100 -132 -100 -352q0 -224 104 -352q100 -124 284 -124q136 0 224 76q88 80 112 220h-168q-60 0 -102 42t-42 102v92h572 v-748h-76q-112 0 -140 112l-12 52q-72 -104 -172 -152q-104 -44 -228 -44q-296 0 -468 196q-176 192 -176 528z" />
<glyph unicode="H" horiz-adv-x="1196" d="M0 0v1232q0 60 42 102t102 42h140v-512h568v512h288v-1376h-288v612h-568v-612h-284z" />
<glyph unicode="I" horiz-adv-x="296" d="M0 0v1232q0 60 42 102t102 42h140v-1376h-284z" />
<glyph unicode="J" horiz-adv-x="924" d="M0 408v108h276v-168q0 -72 40 -112q40 -36 124 -36t124 44q32 40 32 172v816q0 60 44 102t104 42h136v-972q0 -132 -12 -192q-20 -68 -52 -108q-56 -68 -148 -104q-104 -32 -224 -32q-128 0 -208 32q-84 20 -148 88q-52 56 -68 112q-20 72 -20 208z" />
<glyph unicode="K" horiz-adv-x="1284" d="M0 0v1232q0 60 42 102t102 42h140v-564l536 564h356l-552 -556l600 -820h-344l-348 488q-76 99 -142 99q-14 0 -28 -5q-78 -26 -78 -98v-484h-284z" />
<glyph unicode="L" horiz-adv-x="1000" d="M0 0v1232q0 60 42 102t102 42h140v-1120h672v-256h-956z" />
<glyph unicode="M" horiz-adv-x="1452" d="M0 0v1232q0 60 42 102t102 46h276l272 -1052l272 1052h420v-1380h-264v1112l-280 -1112h-292l-284 1112v-1112h-264z" />
<glyph unicode="N" horiz-adv-x="1192" d="M0 0v1232q0 60 42 102t102 46h152l560 -948v948h280v-1380h-292l-564 948v-948h-280z" />
<glyph unicode="O" d="M-24 688q0 336 176 532q188 196 492 196q300 0 492 -196q180 -200 180 -532t-180 -528q-184 -192 -492 -192q-312 0 -492 192q-176 192 -176 528zM260 688q0 -232 100 -352q100 -124 284 -124q180 0 284 124q104 128 104 352t-104 356q-104 124 -284 124 q-184 0 -284 -124t-100 -356z" />
<glyph unicode="P" horiz-adv-x="1104" d="M0 0v1232q0 60 42 102t102 42h468q220 0 328 -112q112 -112 112 -332q0 -208 -108 -328q-108 -112 -312 -112h-348v-492h-284zM284 740h276q112 0 160 48q52 44 52 152q0 92 -48 148q-56 48 -148 48h-292v-396z" />
<glyph unicode="Q" horiz-adv-x="1384" d="M-24 688q0 336 176 532q188 196 492 196q300 0 492 -196q180 -200 180 -532q0 -144 -36 -264q-36 -124 -112 -212l152 -144l-76 -76q-35 -35 -73 -35q-5 0 -11 1q-44 6 -72 30l-80 72q-72 -52 -160 -68q-96 -24 -204 -24q-312 0 -492 192q-176 192 -176 528zM260 688 q0 -232 100 -352q100 -124 284 -124q60 0 88 8q44 12 76 28l-144 140l48 52q32 36 86 44q14 2 26 2q37 0 64 -18l80 -64q28 52 48 128q4 36 10 74t6 82q0 224 -104 356q-104 124 -284 124q-184 0 -284 -124t-100 -356z" />
<glyph unicode="R" horiz-adv-x="1192" d="M0 0v1232q0 60 42 102t102 42h524q224 0 332 -96q112 -100 112 -292q0 -128 -56 -212q-48 -80 -152 -116q92 -32 128 -96q36 -60 44 -204l8 -164v-52t4 -52q12 -72 48 -92h-312q-20 40 -24 84q-8 64 -8 88l-4 148q-8 120 -48 172q-44 44 -156 44h-300v-536h-284zM284 776 h332q108 0 160 44t52 136t-52 136q-48 48 -144 48h-348v-364z" />
<glyph unicode="S" horiz-adv-x="1176" d="M0 428h280q16 -120 92 -168q80 -56 220 -56q124 0 188 44t64 128q0 128 -360 208l-8 4l-32 8q-204 44 -272 92q-80 44 -112 128q-40 72 -40 184q0 196 136 308q136 108 396 108q244 0 376 -112q136 -124 144 -324h-160q-92 0 -132 84q-20 40 -56 68q-72 52 -196 52 q-120 0 -172 -44q-60 -44 -60 -124q0 -108 232 -160q68 -20 100 -24q72 -24 126 -38t86 -22l112 -48q80 -48 124 -124q44 -84 44 -184q0 -216 -144 -336q-144 -112 -408 -112q-272 0 -408 116q-148 116 -160 344z" />
<glyph unicode="T" horiz-adv-x="1148" d="M0 1132v100q0 60 42 102t102 42h952v-244h-404v-1132h-284v1132h-408z" />
<glyph unicode="U" horiz-adv-x="1156" d="M0 488v740q0 60 42 106t102 46h144v-860q0 -160 60 -236q64 -72 204 -72q136 0 204 72q64 72 64 236v860h284v-892q0 -256 -144 -388q-132 -132 -408 -132t-408 132q-144 132 -144 388z" />
<glyph unicode="V" horiz-adv-x="1276" d="M0 1376h316l292 -1028l268 924q24 104 136 104h204l-468 -1376h-272z" />
<glyph unicode="W" horiz-adv-x="1840" d="M0 1376h292l236 -972l200 972h304l196 -972l212 868q24 104 140 104h176l-392 -1376h-272l-212 1056l-216 -1056h-268z" />
<glyph unicode="X" horiz-adv-x="1276" d="M0 0l432 704l-432 672h328l280 -480l240 412q40 68 124 68h244l-432 -672l432 -704h-324l-284 476l-280 -476h-328z" />
<glyph unicode="Y" horiz-adv-x="1296" d="M0 1376h348l292 -592l236 512q40 80 132 80h228l-452 -864v-512h-284v512z" />
<glyph unicode="Z" horiz-adv-x="1144" d="M0 0v240l748 888h-588q-60 0 -102 42t-42 102v104h1076v-240l-748 -888h732v-248h-1076z" />
<glyph unicode="[" horiz-adv-x="512" d="M0 -228v1836h488v-204h-228v-1424h228v-108q0 -92 -100 -100h-388z" />
<glyph unicode="\" horiz-adv-x="588" d="M0 1380h100q56 0 72 -56l388 -1324h-156z" />
<glyph unicode="]" horiz-adv-x="512" d="M0 -36h228v1428h-228v104q0 36 26 68t74 32h388v-1836h-488v204z" />
<glyph unicode="^" horiz-adv-x="588" d="M0 1180l128 152q64 84 152 84q84 0 152 -84l128 -152h-164l-120 136l-84 -92q-24 -24 -42 -34t-54 -10h-96z" />
<glyph unicode="_" horiz-adv-x="1092" d="M0 -192q0 48 32 82t80 34h928v-172h-1040v56z" />
<glyph unicode="`" horiz-adv-x="392" d="M0 1416h180q36 0 56 -18t28 -30l112 -204h-132z" />
<glyph unicode="a" horiz-adv-x="916" d="M-24 316q0 168 98 240t250 96q20 0 48 6t64 10q176 24 176 104q0 60 -62 78t-114 18q-56 0 -100 -16t-64 -60h-268q16 124 112 204q108 92 308 92q224 0 336 -76q116 -80 116 -224v-364q0 -160 -58 -250t-138 -130q-84 -44 -178 -54t-166 -10q-144 0 -252 78t-108 258z M236 324q0 -60 36 -96q36 -32 104 -32q112 0 176 64t64 176v100q-56 -28 -156 -52l-92 -20q-72 -20 -104 -52q-28 -44 -28 -88z" />
<glyph unicode="b" horiz-adv-x="1052" d="M0 464v916h136q56 0 96 -40t40 -96v-320q44 76 128 124q72 40 176 40q188 0 308 -156t120 -404t-120 -404q-60 -76 -162 -110t-202 -34q-192 0 -356 100t-164 384zM272 540q0 -168 56 -244q60 -84 168 -84q112 0 172 84t60 244q0 144 -60 224q-60 84 -164 84 q-112 0 -172 -80q-60 -84 -60 -228z" />
<glyph unicode="c" horiz-adv-x="984" d="M-24 540q0 256 124 400q128 148 356 148q240 0 372 -144q72 -88 104 -204h-280q-20 40 -40 60q-52 56 -148 56q-88 0 -144 -56q-72 -80 -72 -264t72 -260q52 -64 156 -64q68 0 116 28q12 4 22 14l22 22q8 12 32 32t72 20h200q-44 -168 -168 -256q-124 -92 -312 -92 q-228 0 -356 148q-128 144 -128 412z" />
<glyph unicode="d" horiz-adv-x="1024" d="M-24 528q0 252 116 404q120 156 308 156q100 0 176 -40q80 -48 128 -124v456h136q56 0 96 -42t40 -94v-780q0 -284 -164 -384t-356 -100q-104 0 -204 34t-160 110q-116 148 -116 404zM248 540q0 -160 60 -244t172 -84q108 0 168 84q56 84 56 244q0 144 -60 228 q-64 80 -172 80q-104 0 -164 -84q-60 -80 -60 -224z" />
<glyph unicode="e" horiz-adv-x="1000" d="M-24 540q0 256 124 400q128 148 356 148q240 0 372 -144q128 -148 128 -412v-28v-16q0 -20 -4 -28h-692q4 -124 60 -184q52 -64 156 -64q68 0 116 28q12 4 22 14l22 22q4 12 30 32t74 20h200q-44 -168 -168 -256q-124 -92 -312 -92q-228 0 -356 148q-128 144 -128 412z M260 640h408q-8 108 -56 160q-52 56 -148 56q-88 0 -144 -56t-60 -160z" />
<glyph unicode="f" horiz-adv-x="464" d="M0 0v1096q0 144 76 216q72 68 236 68q40 0 64 -4q44 0 68 -4v-220h-72q-56 0 -80 -16q-20 -16 -20 -64v-72h172v-60q0 -60 -40 -98t-92 -38h-40v-804h-272z" />
<glyph unicode="g" horiz-adv-x="1024" d="M-24 532q0 248 114 402t366 154q192 0 356 -104t164 -384v-564q0 -280 -164 -382t-356 -102q-368 0 -456 344h292q32 -56 98 -86q45 -20 90 -20l42 4q66 14 120 78t62 192v68q-72 -112 -194 -140q-45 -10 -90 -10q-76 0 -152 30q-120 48 -206 178t-86 342zM248 524 q0 -276 160 -306q36 -7 67 -7q110 0 169 81q36 44 52 138q9 50 9 100q0 43 -7 86q-14 92 -66 164t-152 72q-136 0 -184 -100t-48 -228z" />
<glyph unicode="h" horiz-adv-x="1040" d="M0 0v1376h136q56 0 96 -40t40 -96v-316q72 120 204 152q53 13 104 13q76 0 148 -29q112 -48 188 -152t76 -288v-620h-268v552q0 60 -10 110t-46 102q-60 84 -164 84q-112 0 -172 -80t-60 -220v-548h-272z" />
<glyph unicode="i" horiz-adv-x="316" d="M24 0v1064h144q56 0 96 -40t40 -96v-928h-280zM24 1156v220h144q56 0 96 -40t40 -96v-84h-280z" />
<glyph unicode="j" horiz-adv-x="364" d="M-92 -212h52q36 0 48 20q16 12 16 52v140v804v260h144q56 0 96 -40t40 -96v-928v-184q0 -136 -80 -200q-80 -60 -264 -60h-52v232zM24 1156v220h144q56 0 96 -40t40 -96v-84h-280z" />
<glyph unicode="k" horiz-adv-x="1008" d="M0 0v1376h144q56 0 96 -40t40 -92v-180v-392l340 392h336l-380 -408l384 -656h-336l-196 360q-52 94 -92 94q-6 0 -12 -2q-44 -16 -44 -48v-148v-256h-280z" />
<glyph unicode="l" horiz-adv-x="340" d="M12 0v1376h144q56 0 96 -38t40 -94v-1244h-280z" />
<glyph unicode="m" horiz-adv-x="1656" d="M0 0v624q0 272 142 364t314 100q92 0 180 -20t160 -80q60 52 142 74t170 26q176 0 324 -92t148 -372v-624h-140q-60 0 -98 38t-38 98v544q0 96 -58 140t-130 44t-130 -44t-58 -140v-56v-624h-276v624v56q0 96 -58 140t-130 44t-128 -44t-56 -140v-680h-280z" />
<glyph unicode="n" horiz-adv-x="972" d="M0 0v624q0 272 142 364t314 100q176 0 324 -92t148 -372v-624h-140q-60 0 -98 38t-38 98v544q0 96 -58 140t-130 44t-128 -44t-56 -140v-680h-280z" />
<glyph unicode="o" horiz-adv-x="1000" d="M-24 544q0 108 30 216t94 180q104 120 268 142q52 7 100 7q106 0 196 -33q152 -60 224 -208q68 -132 68 -308q0 -128 -28 -220t-72 -156q-96 -132 -244 -164q-72 -20 -145 -20q-60 0 -121 14q-134 30 -214 102q-84 72 -120 194t-36 254zM248 526q8 -182 68 -254 q24 -32 84 -54q33 -12 67 -12q27 0 55 8q62 18 110 90t52 232q0 144 -46 216t-106 92q-32 11 -63 11l-57 -9q-60 -18 -88 -46q-77 -84 -77 -243q0 -15 1 -31z" />
<glyph unicode="p" horiz-adv-x="1052" d="M0 -392v996q0 280 164 382t356 102q100 0 202 -38t162 -110q120 -156 120 -400q0 -252 -120 -408q-120 -152 -308 -152q-100 0 -176 36q-80 40 -128 124v-396q0 -56 -40 -96t-96 -40h-136zM272 528q0 -152 60 -228q60 -84 172 -84q104 0 164 84t60 228q0 156 -60 240 t-172 84q-108 0 -168 -84q-56 -76 -56 -240z" />
<glyph unicode="q" horiz-adv-x="1024" d="M-24 540q0 248 116 400q60 72 160 110t204 38q192 0 356 -102t164 -382v-996h-136q-56 0 -96 40t-40 96v396q-52 -84 -128 -124q-80 -36 -176 -36q-192 0 -308 152q-116 148 -116 408zM248 528q0 -144 60 -228t164 -84q112 0 172 84q60 76 60 228q0 156 -56 240 q-60 84 -168 84q-112 0 -172 -84t-60 -240z" />
<glyph unicode="r" horiz-adv-x="628" d="M0 0v516q0 156 46 262t126 170q76 60 178 88t210 28h20h20v-284h-92q-116 0 -172 -56t-56 -176v-548h-280z" />
<glyph unicode="s" horiz-adv-x="964" d="M-24 340v12h272q4 -80 60 -120q60 -40 160 -40q72 0 124 28q48 28 48 76q0 72 -168 108q-72 12 -108 24q-212 52 -284 124q-80 72 -80 192q0 152 116 252q120 92 312 92q208 0 332 -92q116 -100 124 -260h-172q-76 0 -116 68l-32 32q-48 36 -132 36q-80 0 -120 -24 q-36 -24 -36 -72q0 -64 208 -108q24 -8 42 -12t34 -4q204 -52 284 -120q76 -72 76 -192q0 -176 -128 -272q-120 -88 -360 -88q-228 0 -340 92q-116 92 -116 268z" />
<glyph unicode="t" horiz-adv-x="496" d="M32 200v1176h144q52 0 92 -40t40 -96v-180h164v-56q0 -60 -40 -98t-96 -38h-28v-592q0 -68 80 -68h84v-208q-53 -3 -109 -3q-84 0 -177 7q-154 12 -154 196z" />
<glyph unicode="u" horiz-adv-x="972" d="M0 440v624h280v-680q0 -96 56 -140t128 -44t130 44t58 140v544q0 56 38 96t98 40h140v-624q0 -284 -148 -372t-324 -88q-172 8 -314 96t-142 364z" />
<glyph unicode="v" horiz-adv-x="1080" d="M0 1064h296l212 -748l188 652q32 96 128 96h208l-376 -1064h-284z" />
<glyph unicode="w" horiz-adv-x="1544" d="M0 1064h272l168 -736l152 736h284l144 -736l148 640q24 96 128 96h176l-292 -1064h-280l-164 760l-164 -760h-280z" />
<glyph unicode="x" horiz-adv-x="1128" d="M0 0l348 548l-328 516h308l184 -320l204 344q36 72 120 72h240l-400 -616l352 -544h-320l-188 336l-196 -336h-324z" />
<glyph unicode="y" horiz-adv-x="1080" d="M0 1064h308l216 -752l188 656q24 96 128 96h192l-408 -1212q-48 -132 -120 -188q-72 -48 -236 -48h-28h-28q-12 4 -30 6t-30 2v220h76q80 0 126 38q29 24 29 65q0 25 -11 57z" />
<glyph unicode="z" horiz-adv-x="968" d="M0 0v212l572 632h-404q-56 0 -96 38t-40 94v88h872v-228l-564 -604h584v-232h-924z" />
<glyph unicode="{" horiz-adv-x="732" d="M0 576v200h36q116 0 168 56t52 188v240q0 132 20 192q24 60 80 88q40 24 108 36q64 12 160 12h14h22t20 -2t20 -2v-200h-14h-10q-12 4 -24 4q-100 0 -128 -40q-36 -36 -36 -152v-232q0 -144 -44 -204q-44 -56 -156 -84q112 -24 156 -84q44 -64 44 -204v-232 q0 -120 36 -156q32 -32 128 -32h6h18q4 0 10 2t14 2v-116q-4 -36 -34 -60t-62 -28q-56 0 -84 4l-56 8q-68 12 -108 36q-56 28 -80 88q-20 68 -20 188v244q0 120 -52 188q-52 56 -164 56q-4 0 -10 -2t-10 -2h-14h-6z" />
<glyph unicode="|" horiz-adv-x="196" d="M0 -360v1984q0 48 36 84t88 36h64v-2104h-188z" />
<glyph unicode="}" horiz-adv-x="732" d="M0 -28h6h18h12h8q100 0 132 32q36 36 36 152v232q0 148 44 204q40 60 156 84q-116 24 -156 84q-44 52 -44 204v232q0 120 -36 156q-32 36 -132 36h-8h-12h-18h-6v112q0 36 30 62t66 26q48 0 76 -4t64 -8q64 -12 108 -36q56 -32 76 -88q24 -60 24 -192v-244 q0 -128 48 -188q52 -52 168 -52h4h16h10h10v-200h-36q-116 0 -172 -56q-48 -56 -48 -184v-244q0 -132 -24 -188q-20 -52 -76 -88q-48 -24 -108 -36q-68 -12 -164 -12h-16h-20q-16 4 -36 4v200z" />
<glyph unicode="~" horiz-adv-x="580" d="M0 420v120q0 76 72 100q56 20 122 -2t132 -46t126 -28t104 56q0 -84 -6 -138t-78 -66q-60 -12 -126 14t-130 48t-122 18t-94 -76z" />
<glyph unicode="&#xa2;" horiz-adv-x="980" d="M-24 532q0 264 128 412t364 148h24h24q12 -4 26 -6t26 -2l44 160h104l-52 -184q120 -36 192 -132q60 -96 76 -244h-268q-8 48 -24 84q-20 28 -48 60l-172 -616h2h2q20 -4 44 -4q88 0 136 48q44 44 64 148h268q-12 -200 -140 -316q-120 -112 -328 -112h-26h-26 q-16 0 -56 8l-56 -208h-104l64 228q-144 64 -220 196q-68 136 -68 332zM252 528q0 -92 24 -164q16 -68 64 -112l168 608q-12 4 -28 4h-10h-6q-108 0 -156 -84q-56 -88 -56 -252z" />
<glyph unicode="&#xa3;" horiz-adv-x="1112" d="M0 208q144 100 184 220h-184v176h200q-16 72 -24 100h-176v176h128q-8 36 -12 70t-4 70q0 176 128 288q132 108 328 108q168 0 292 -92q120 -92 144 -276l-144 -20q-84 -12 -112 26t-32 50q-52 100 -160 100q-92 0 -132 -56q-48 -56 -48 -124q0 -56 24 -144h192 q24 0 80 -8t56 -104v-64h-280q20 -96 20 -100h176q32 0 56 -30t24 -66l4 -80h-280q-28 -76 -124 -184q52 24 132 24q52 0 196 -36q80 -16 104 -16q72 0 200 56l104 -228q-116 -56 -268 -60q-92 0 -228 36q-168 40 -220 40q-120 0 -240 -80z" />
<glyph unicode="&#xa7;" horiz-adv-x="736" d="M-24 768q0 56 28 136q28 56 100 104q-32 28 -52 80q-20 32 -20 88q0 100 76 168q76 72 216 72t224 -72q76 -68 96 -180l-96 -12q-120 -24 -134 40t-82 64q-48 0 -72 -24q-24 -20 -24 -48q0 -36 32 -68q20 -20 152 -108t164 -120q56 -48 92 -108q28 -64 28 -116 q0 -72 -36 -132q-32 -60 -96 -104q44 -48 64 -92q24 -44 24 -100q0 -112 -84 -184q-72 -72 -228 -72t-232 72q-88 64 -104 196l60 8q80 8 102 -10t86 -74q36 -36 92 -36q48 0 76 28q28 20 28 60t-24 64q-28 28 -196 136q-152 100 -216 180q-44 72 -44 164zM156 808 q0 -80 96 -144l208 -144q36 32 48 56q16 20 16 52q0 28 -16 52q-28 32 -92 80l-196 148q-20 -8 -44 -40q-20 -28 -20 -60z" />
<glyph unicode="&#xa8;" horiz-adv-x="688" d="M0 904v48q0 32 64 68q12 8 22 16t22 20q24 40 32 88q8 36 -44 36h-92v148q0 88 96 88h156v-228q0 -124 -64 -192q-72 -76 -192 -92zM400 904v48q0 32 60 68q28 16 44 36q28 36 36 88q0 12 -6 24t-38 12h-92v148q0 88 92 88h160v-228q0 -116 -64 -192q-72 -76 -192 -92z " />
<glyph unicode="&#xa9;" horiz-adv-x="480" d="M0 1192q0 48 16 88t52 76t72 52q56 16 88 16q40 0 88 -20q28 -8 76 -48q28 -40 48 -76q20 -48 20 -88q0 -44 -20 -88q-8 -24 -48 -72q-48 -40 -76 -52q-56 -16 -88 -16q-36 0 -84 16q-44 16 -76 52q-36 32 -52 76q-16 36 -16 84zM36 1192q0 -24 16 -72q20 -44 44 -60 q16 -24 60 -44q36 -12 72 -12q40 0 76 12q12 8 30 18t30 26q20 16 44 60q12 36 12 72q0 44 -16 76q-20 40 -40 60q-12 12 -30 22t-30 22q-36 12 -76 12q-36 0 -72 -12q-44 -24 -60 -44q-16 -12 -26 -30t-18 -30q-16 -48 -16 -76zM104 1192q0 64 32 104q36 36 96 36 q52 0 80 -28q32 -28 32 -68h-32q-12 0 -28 16q0 -4 -12 20q-24 12 -40 12q-40 0 -56 -24t-16 -68q0 -48 16 -68q16 -24 56 -24q20 0 40 12q16 24 20 40h52q0 -48 -36 -72q-28 -28 -80 -28q-64 0 -92 36q-32 36 -32 104z" />
<glyph unicode="&#xaa;" horiz-adv-x="436" d="M-24 1036q0 84 48 118t120 46q24 8 56 8q84 12 84 52q0 28 -30 38t-54 10q-68 0 -80 -40h-128q8 60 48 100q52 48 152 48q112 0 164 -40q60 -36 60 -108v-176q0 -160 -98 -190t-166 -30q-76 0 -126 38t-50 126zM100 1040q0 -28 20 -48q24 -16 48 -16q56 0 88 32t32 88v48 q-20 -8 -38 -16t-38 -8l-48 -12q-32 -8 -48 -24q-16 -24 -16 -44z" />
<glyph unicode="&#xad;" horiz-adv-x="576" d="M0 420v116q0 108 108 108h444v-224h-552z" />
<glyph unicode="&#xae;" horiz-adv-x="480" d="M0 1192q0 24 8 64q4 12 10 26t14 30q28 56 84 80q48 32 112 32q48 0 88 -20q48 -24 76 -52q36 -32 48 -72q20 -48 20 -88q0 -44 -20 -88t-48 -72q-36 -36 -76 -52q-56 -16 -88 -16q-44 0 -88 20q-40 16 -76 48q-32 36 -48 76q-16 36 -16 84zM36 1192q0 -24 16 -72 q8 -20 40 -60q24 -24 64 -44q36 -12 72 -12t72 12q40 20 64 44q28 28 40 60q16 32 16 72t-12 72q-20 40 -44 64q-20 20 -60 44q-36 12 -76 12q-36 0 -72 -12q-16 -12 -32 -20t-28 -20q-24 -24 -44 -64q-16 -48 -16 -76zM132 1072v228q0 24 28 24h96q44 0 60 -16 q20 -16 20 -56q0 -28 -8 -36q-16 -20 -28 -24q16 -8 24 -16q8 -16 8 -36v-32v-10v-10t2 -10t10 -6h-60l-2 6t-2 10v6v10v28q-8 24 -12 32q-8 8 -28 8h-56v-100h-52zM184 1216h64q20 0 28 8q8 4 8 24t-8 24q-12 12 -28 12h-64v-68z" />
<glyph unicode="&#xb1;" horiz-adv-x="792" d="M0 220v64q0 88 88 88h668v-152h-756zM0 768v68q0 24 20 52t68 28h196v256h96q88 0 88 -88v-168h288v-148h-288v-256h-184v256h-284z" />
<glyph unicode="&#xb2;" horiz-adv-x="344" d="M0 960q0 60 32 112q20 36 80 80q4 0 12 6t20 14q88 56 88 100q0 32 -16 48t-52 16q-40 0 -52 -20q-20 -28 -20 -60v-4h-48q-40 0 -32 48q12 44 40 72q44 44 120 44q64 0 112 -40q44 -40 44 -104q0 -44 -24 -80q-20 -32 -84 -76q-24 -16 -58 -36t-34 -40h196v-80h-324z " />
<glyph unicode="&#xb3;" horiz-adv-x="348" d="M4 1100v4h88q0 -40 16 -60q20 -16 56 -16t52 16q20 12 20 52q0 32 -20 52q-32 16 -68 16h-2h-2h-6h-2v60h8q44 0 60 16q20 20 20 48q0 24 -16 40t-44 16t-48 -20q-16 -12 -16 -48v-4h-48q-40 0 -32 48q4 32 32 60q40 36 116 36q64 0 108 -36q40 -32 40 -88q0 -28 -12 -52 q-32 -32 -44 -36q32 -12 56 -40q16 -28 16 -64q0 -72 -44 -108q-56 -40 -124 -40q-80 0 -120 40q-40 32 -40 108z" />
<glyph unicode="&#xb4;" horiz-adv-x="392" d="M0 1164l112 204q8 12 28 30t56 18h180l-244 -252h-132z" />
<glyph unicode="&#xb5;" horiz-adv-x="916" d="M0 -380v996v376h260v-632q0 -92 56 -134t124 -42q64 0 118 42t54 134v508q0 48 38 86t90 38h136v-580q0 -268 -140 -350t-304 -82q-48 4 -90 8t-82 12v-252q0 -52 -38 -90t-86 -38h-136z" />
<glyph unicode="&#xba;" horiz-adv-x="472" d="M-24 1148q0 124 60 192q48 60 128 70t148 -10q76 -32 108 -104q32 -60 32 -152q0 -120 -48 -184t-120 -80q-64 -20 -130 -4t-106 52q-72 76 -72 220zM104 1136q4 -88 36 -120q24 -32 102 -30t78 158q0 144 -76 150t-100 -22q-44 -48 -40 -136z" />
<glyph unicode="&#xbc;" horiz-adv-x="832" d="M0 0l592 1020q16 32 42 38t58 6h36l-616 -1064h-112zM32 888v76q36 0 72 24t52 76h28q56 0 56 -56v-480h-108v360h-100zM392 120v96l200 320h84q56 0 56 -56v-32v-240h64v-88h-64v-120h-108v120h-232zM476 204h148v236z" />
<glyph unicode="&#xbd;" horiz-adv-x="824" d="M0 0l592 1020q16 32 42 38t58 6h36l-616 -1064h-112zM32 888v76q36 0 72 24t52 76h28q56 0 56 -56v-480h-108v360h-100zM396 0q0 72 40 132q24 44 96 96q12 12 36 24q108 68 108 120q0 36 -24 56q-20 24 -56 24q-44 0 -64 -28q-24 -24 -24 -72v-8h-56q-52 0 -40 60 q8 48 44 88q56 52 144 52t136 -48q52 -48 52 -124q0 -60 -28 -92q-24 -44 -100 -92q-28 -24 -68 -46t-44 -46h236v-96h-388z" />
<glyph unicode="&#xbe;" horiz-adv-x="952" d="M0 688h104q0 -44 24 -68q24 -20 64 -20q44 0 64 20q24 24 24 60q0 40 -28 60q-24 24 -76 24q-4 0 -6 -2l-2 -2h-6h-2v76h12q44 0 68 16q24 24 24 56t-20 52q-16 16 -52 16q-44 0 -56 -20q-20 -20 -20 -60v-4h-56q-56 0 -40 56q12 44 40 72q48 44 136 44q76 0 132 -40 q48 -44 48 -108q0 -40 -16 -60q-16 -28 -52 -44q48 -24 64 -52q24 -32 24 -76q0 -80 -56 -128q-60 -44 -148 -44t-144 44q-48 48 -48 132zM116 0l588 1020q20 32 46 38t58 6h32l-616 -1064h-108zM508 120v96l200 320h80q56 0 56 -56v-32v-240h64v-88h-64v-120h-104v120h-232 zM592 204h148v236z" />
<glyph unicode="&#xbf;" horiz-adv-x="936" d="M-24 348q0 104 70 110t178 6q4 -116 56 -168q60 -76 194 -56t134 184q0 72 -42 120t-102 96q-120 92 -142 168t-22 208h252v-20v-16q-4 -96 50 -146t118 -102t118 -122t54 -202q0 -168 -94 -264t-226 -128q-132 -24 -268 -2t-220 106q-48 40 -78 102t-30 126zM292 1240 v176h276v-276h-176q-100 0 -100 100z" />
<glyph unicode="&#xc0;" d="M0 0l456 1284q36 92 136 92h224l500 -1376h-300l-92 284h-536l-88 -284h-300zM400 1724h176q64 0 84 -48l112 -204h-132zM464 516h384l-192 584z" />
<glyph unicode="&#xc1;" d="M0 0l456 1284q36 92 136 92h224l500 -1376h-300l-92 284h-536l-88 -284h-300zM464 516h384l-192 584zM596 1472l112 204q16 48 84 48h180l-244 -252h-132z" />
<glyph unicode="&#xc2;" d="M0 0l456 1284q36 92 136 92h224l500 -1376h-300l-92 284h-536l-88 -284h-300zM380 1472l128 152q64 84 152 84q84 0 152 -84l128 -152h-164l-120 136l-84 -92q-24 -24 -42 -34t-54 -10h-96zM464 516h384l-192 584z" />
<glyph unicode="&#xc3;" d="M0 0l456 1284q36 92 136 92h224l500 -1376h-300l-92 284h-536l-88 -284h-300zM408 1472v108q0 60 64 92q48 16 108 -4t118 -42t112 -26t98 48q0 -72 -6 -120t-70 -60q-56 -12 -116 12t-116 42t-108 16t-84 -66zM464 516h384l-192 584z" />
<glyph unicode="&#xc4;" d="M0 0l456 1284q36 92 136 92h224l500 -1376h-300l-92 284h-536l-88 -284h-300zM384 1472v184h116q68 0 68 -68v-116h-184zM464 516h384l-192 584zM748 1472v184h116q64 0 64 -68v-116h-180z" />
<glyph unicode="&#xc5;" horiz-adv-x="1384" d="M8 0l456 1280q32 92 136 92h224l496 -1372h-296l-96 276h-532l-92 -276h-296zM472 508h380l-192 588zM516 1560q0 24 12 56q16 32 32 44q12 16 48 32q24 12 56 12q24 0 56 -12q32 -16 48 -32q16 -12 32 -44q12 -32 12 -56q0 -32 -12 -56q-16 -36 -32 -48q-24 -24 -48 -32 q-32 -12 -56 -12q-16 0 -48 8q-32 16 -48 28q-24 12 -40 48q-12 28 -12 64zM588 1560q0 -36 20 -60q24 -24 56 -24t56 24q20 24 20 60q0 28 -20 56q-24 24 -56 24t-56 -24q-20 -28 -20 -56z" />
<glyph unicode="&#xc6;" horiz-adv-x="2144" d="M0 0l876 1280q24 40 72 66t92 26h224h744v-240h-716v-292h536v-88q-4 -60 -46 -102t-102 -42h-388v-356h752v-252h-804h-228v284h-532l-184 -284h-296zM632 512h380v164v420z" />
<glyph unicode="&#xc7;" horiz-adv-x="1288" d="M-24 688q0 360 168 540q172 188 496 188q264 0 420 -132q148 -128 168 -360h-172q-96 0 -136 84q-28 52 -68 92q-80 60 -212 60q-184 0 -284 -120q-96 -120 -96 -352q0 -224 96 -344q92 -124 276 -124q128 0 212 64q76 60 108 192h276q-20 -240 -180 -376 q-164 -132 -432 -132q-312 0 -476 188q-164 180 -164 532zM332 -156q0 64 72 92q52 20 114 0t126 -42t122 -26t102 44q0 -72 -6 -130t-78 -74q-56 -8 -120 16t-126 44t-116 16t-90 -72v132z" />
<glyph unicode="&#xc8;" horiz-adv-x="1048" d="M0 0v1232q0 60 42 102t102 42h856v-236h-720v-296h536v-92q0 -60 -42 -102t-102 -42h-392v-352h720v-256h-1000zM256 1724h180q32 0 52 -18t32 -30l112 -204h-132z" />
<glyph unicode="&#xc9;" horiz-adv-x="1048" d="M0 0v1232q0 60 42 102t102 42h856v-236h-720v-296h536v-92q0 -60 -42 -102t-102 -42h-392v-352h720v-256h-1000zM452 1472l112 204q8 12 28 30t56 18h180l-244 -252h-132z" />
<glyph unicode="&#xca;" horiz-adv-x="1048" d="M0 0v1232q0 60 42 102t102 42h856v-236h-720v-296h536v-92q0 -60 -42 -102t-102 -42h-392v-352h720v-256h-1000zM256 1472l128 152q64 84 156 84q80 0 148 -84l128 -152h-160l-124 136l-80 -92q-24 -24 -44 -34t-56 -10h-96z" />
<glyph unicode="&#xcb;" horiz-adv-x="1048" d="M0 0v1232q0 60 42 102t102 42h856v-236h-720v-296h536v-92q0 -60 -42 -102t-102 -42h-392v-352h720v-256h-1000zM228 1472v184h112q68 0 68 -68v-116h-180zM592 1472v184h112q68 0 68 -68v-116h-180z" />
<glyph unicode="&#xcc;" horiz-adv-x="296" d="M-144 1724h176q36 0 54 -18l30 -30l112 -204h-132zM0 0v1232q0 60 42 102t102 42h140v-1376h-284z" />
<glyph unicode="&#xcd;" horiz-adv-x="472" d="M0 0v1232q0 60 42 102t102 42h140v-1376h-284zM80 1472l112 204q16 48 84 48h176l-240 -252h-132z" />
<glyph unicode="&#xce;" horiz-adv-x="440" d="M-132 1472l128 152q60 84 148 84q80 0 152 -84l124 -152h-160l-120 136l-84 -92q-44 -44 -96 -44h-92zM0 0v1232q0 60 42 102t102 42h140v-1376h-284z" />
<glyph unicode="&#xcf;" horiz-adv-x="480" d="M-84 1472v184h112q68 0 68 -68v-116h-180zM44 0v1232q0 60 42 102t102 42h140v-1376h-284zM276 1472v184h116q68 0 68 -68v-116h-184z" />
<glyph unicode="&#xd0;" horiz-adv-x="1516" d="M0 596v180h280v452q0 56 42 100t102 44h392q316 0 472 -172q156 -168 156 -516q0 -188 -60 -332q-56 -144 -164 -228q-84 -68 -188 -96q-96 -28 -292 -28h-460v596h-280zM556 248h224q196 0 288 104q88 104 88 332q0 232 -84 340t-256 108h-260v-356h156q120 0 120 -120 v-60h-276v-348z" />
<glyph unicode="&#xd1;" horiz-adv-x="1192" d="M0 0v1232q0 60 42 102t102 42h152l560 -944v944h280v-1376h-292l-564 948v-948h-280zM348 1480v108q0 64 64 88q48 16 108 -2t118 -40t112 -26t98 48q0 -72 -6 -120t-70 -60q-56 -12 -116 12t-116 42t-108 16t-84 -66z" />
<glyph unicode="&#xd2;" d="M-24 688q0 336 176 532q188 196 492 196q300 0 492 -196q180 -200 180 -532t-180 -528q-184 -192 -492 -192q-312 0 -492 192q-176 192 -176 528zM260 688q0 -232 100 -352q100 -124 284 -124q180 0 284 124q104 128 104 352t-104 356q-104 124 -284 124 q-184 0 -284 -124t-100 -356zM316 1724h180q32 0 52 -18t32 -30l108 -204h-128z" />
<glyph unicode="&#xd3;" d="M-24 688q0 336 176 532q188 196 492 196q300 0 492 -196q180 -200 180 -532t-180 -528q-184 -192 -492 -192q-312 0 -492 192q-176 192 -176 528zM260 688q0 -232 100 -352q100 -124 284 -124q180 0 284 124q104 128 104 352t-104 356q-104 124 -284 124 q-184 0 -284 -124t-100 -356zM540 1472l112 204q16 48 84 48h176l-244 -252h-128z" />
<glyph unicode="&#xd4;" d="M-24 688q0 336 176 532q188 196 492 196q300 0 492 -196q180 -200 180 -532t-180 -528q-184 -192 -492 -192q-312 0 -492 192q-176 192 -176 528zM260 688q0 -232 100 -352q100 -124 284 -124q180 0 284 124q104 128 104 352t-104 356q-104 124 -284 124 q-184 0 -284 -124t-100 -356zM364 1472l128 152q64 84 156 84q80 0 148 -84l128 -152h-160l-124 136l-80 -92q-24 -24 -44 -34t-56 -10h-96z" />
<glyph unicode="&#xd5;" d="M-24 688q0 336 176 532q188 196 492 196q300 0 492 -196q180 -200 180 -532t-180 -528q-184 -192 -492 -192q-312 0 -492 192q-176 192 -176 528zM260 688q0 -232 100 -352q100 -124 284 -124q180 0 284 124q104 128 104 352t-104 356q-104 124 -284 124 q-184 0 -284 -124t-100 -356zM392 1472v108q0 60 68 92q48 16 108 -4t118 -42t112 -26t98 48q0 -72 -8 -120t-68 -60q-56 -12 -116 12t-118 44t-108 16t-86 -68z" />
<glyph unicode="&#xd6;" d="M-24 688q0 336 176 532q188 196 492 196q300 0 492 -196q180 -200 180 -532t-180 -528q-184 -192 -492 -192q-312 0 -492 192q-176 192 -176 528zM260 688q0 -232 100 -352q100 -124 284 -124q180 0 284 124q104 128 104 352t-104 356q-104 124 -284 124 q-184 0 -284 -124t-100 -356zM372 1472v184h112q68 0 68 -68v-116h-180zM736 1472v184h112q68 0 68 -68v-116h-180z" />
<glyph unicode="&#xd8;" horiz-adv-x="1388" d="M-32 0l160 188q-152 184 -152 500q0 336 176 532q188 196 492 196q264 0 432 -144l92 108h156l-164 -192q156 -188 156 -500q0 -332 -180 -528q-184 -192 -492 -192q-268 0 -432 136l-92 -104h-152zM260 688q0 -168 56 -284l584 668q-96 96 -256 96q-184 0 -284 -124 t-100 -356zM388 308q96 -96 256 -96q180 0 284 124q104 128 104 352q0 172 -60 288z" />
<glyph unicode="&#xd9;" horiz-adv-x="1156" d="M0 488v748q0 56 42 100t102 44h144v-860q0 -160 60 -236q64 -72 204 -72q136 0 204 72q64 72 64 236v860h284v-892q0 -256 -144 -388q-132 -132 -408 -132t-408 132q-144 132 -144 388zM288 1724h180q32 0 52 -18t32 -30l112 -204h-132z" />
<glyph unicode="&#xda;" horiz-adv-x="1156" d="M0 488v740q0 60 42 106t102 46h144v-860q0 -160 60 -236q64 -72 204 -72q136 0 204 72q64 72 64 236v860h284v-892q0 -256 -144 -388q-132 -132 -408 -132t-408 132q-144 132 -144 388zM448 1472l108 204q8 12 28 30t56 18h180l-244 -252h-128z" />
<glyph unicode="&#xdb;" horiz-adv-x="1156" d="M0 488v748q0 56 42 100t102 44h144v-860q0 -160 60 -236q64 -72 204 -72q136 0 204 72q64 72 64 236v860h284v-892q0 -256 -144 -388q-132 -132 -408 -132t-408 132q-144 132 -144 388zM272 1472l128 152q64 84 152 84q84 0 152 -84l128 -152h-160l-124 136l-84 -92 q-24 -24 -42 -34t-54 -10h-96z" />
<glyph unicode="&#xdc;" horiz-adv-x="1156" d="M0 488v748q0 56 42 100t102 44h144v-860q0 -160 60 -236q64 -72 204 -72q136 0 204 72q64 72 64 236v860h284v-892q0 -256 -144 -388q-132 -132 -408 -132t-408 132q-144 132 -144 388zM280 1472v184h112q68 0 68 -68v-116h-180zM644 1472v184h112q68 0 68 -68v-116h-180 z" />
<glyph unicode="&#xde;" horiz-adv-x="780" d="M0 0v1372q52 0 126 -8t74 -92v-208q56 24 112 28t116 4q156 0 236 -130t80 -282t-80 -280t-236 -128q-60 0 -116 4t-112 28v-208q0 -84 -74 -92t-126 -8zM192 688q0 -96 52 -160t128 -64q72 0 126 64t54 160q0 92 -54 158t-126 66q-76 0 -128 -66t-52 -158z" />
<glyph unicode="&#xdf;" horiz-adv-x="1180" d="M0 -172v1128q4 192 142 326t330 134h176q208 0 320 -92q112 -88 112 -256q0 -104 -44 -176q-44 -68 -120 -108q100 -44 156 -124q52 -76 52 -200q0 -204 -128 -308q-132 -108 -372 -108h-220v248h200q120 0 172 40q56 40 56 136q0 92 -52 140q-52 40 -176 40h-200v236 h188q104 0 152 36q52 36 52 112t-48 112q-52 32 -156 32h-84q-124 0 -180 -76t-56 -156v-1116h-272z" />
<glyph unicode="&#xe0;" horiz-adv-x="916" d="M-24 316q0 168 98 240t250 96q20 0 48 6t64 10q176 24 176 104q0 60 -62 78t-114 18q-56 0 -100 -16t-64 -60h-268q16 124 112 204q108 92 308 92q224 0 336 -76q116 -80 116 -224v-364q0 -160 -58 -250t-138 -130q-84 -44 -178 -54t-166 -10q-144 0 -252 78t-108 258z M164 1412h176q36 0 56 -18t28 -30l112 -204h-128zM236 324q0 -60 36 -96q36 -32 104 -32q112 0 176 64t64 176v100q-56 -28 -156 -52l-92 -20q-72 -20 -104 -52q-28 -44 -28 -88z" />
<glyph unicode="&#xe1;" horiz-adv-x="916" d="M-24 316q0 168 98 240t250 96q20 0 48 6t64 10q176 24 176 104q0 60 -62 78t-114 18q-56 0 -100 -16t-64 -60h-268q16 124 112 204q108 92 308 92q224 0 336 -76q116 -80 116 -224v-364q0 -160 -58 -250t-138 -130q-84 -44 -178 -54t-166 -10q-144 0 -252 78t-108 258z M236 324q0 -60 36 -96q36 -32 104 -32q112 0 176 64t64 176v100q-56 -28 -156 -52l-92 -20q-72 -20 -104 -52q-28 -44 -28 -88zM332 1160l112 204q8 12 28 30t56 18h180l-244 -252h-132z" />
<glyph unicode="&#xe2;" horiz-adv-x="916" d="M-24 316q0 168 98 240t250 96q20 0 48 6t64 10q176 24 176 104q0 60 -62 78t-114 18q-56 0 -100 -16t-64 -60h-268q16 124 112 204q108 92 308 92q224 0 336 -76q116 -80 116 -224v-364q0 -160 -58 -250t-138 -130q-84 -44 -178 -54t-166 -10q-144 0 -252 78t-108 258z M144 1160l128 152q60 80 152 80q88 0 152 -80l128 -152h-164l-120 132l-84 -88q-24 -24 -42 -34t-54 -10h-96zM236 324q0 -60 36 -96q36 -32 104 -32q112 0 176 64t64 176v100q-56 -28 -156 -52l-92 -20q-72 -20 -104 -52q-28 -44 -28 -88z" />
<glyph unicode="&#xe3;" horiz-adv-x="916" d="M-24 316q0 168 98 240t250 96q20 0 48 6t64 10q176 24 176 104q0 60 -62 78t-114 18q-56 0 -100 -16t-64 -60h-268q16 124 112 204q108 92 308 92q224 0 336 -76q116 -80 116 -224v-364q0 -160 -58 -250t-138 -130q-84 -44 -178 -54t-166 -10q-144 0 -252 78t-108 258z M172 1160v104q0 68 68 92q48 16 108 -4t118 -40t112 -24t94 48q0 -76 -6 -122t-66 -58q-56 -12 -116 12t-118 42t-110 16t-84 -66zM236 324q0 -60 36 -96q36 -32 104 -32q112 0 176 64t64 176v100q-56 -28 -156 -52l-92 -20q-72 -20 -104 -52q-28 -44 -28 -88z" />
<glyph unicode="&#xe4;" horiz-adv-x="916" d="M-24 316q0 168 98 240t250 96q20 0 48 6t64 10q176 24 176 104q0 60 -62 78t-114 18q-56 0 -100 -16t-64 -60h-268q16 124 112 204q108 92 308 92q224 0 336 -76q116 -80 116 -224v-364q0 -160 -58 -250t-138 -130q-84 -44 -178 -54t-166 -10q-144 0 -252 78t-108 258z M152 1160v180h112q68 0 68 -68v-112h-180zM236 324q0 -60 36 -96q36 -32 104 -32q112 0 176 64t64 176v100q-56 -28 -156 -52l-92 -20q-72 -20 -104 -52q-28 -44 -28 -88zM516 1160v180h112q68 0 68 -68v-112h-180z" />
<glyph unicode="&#xe5;" horiz-adv-x="916" d="M-24 320q0 168 98 240t250 96q20 0 48 6t64 10q176 24 176 104q0 60 -62 78t-114 18q-56 0 -100 -16t-64 -60h-268q16 124 112 204q108 92 308 92q224 0 336 -76q116 -80 116 -224v-364q0 -160 -58 -250t-138 -130q-108 -56 -270 -66t-270 42q-164 84 -164 296zM236 328 q0 -60 36 -96q44 -32 104 -32q112 0 176 64t64 176v100q-56 -28 -156 -52q-100 -20 -92 -20q-60 -16 -96 -48t-36 -92zM284 1296q0 24 12 56q16 32 32 44q12 16 48 32q28 12 56 12q32 0 56 -12q32 -16 48 -32q16 -12 32 -44q12 -32 12 -56q0 -32 -12 -56q-16 -36 -32 -48 q-24 -24 -48 -32q-24 -12 -56 -12q-24 0 -48 12q-28 4 -44 24q-28 16 -40 48q-16 24 -16 64zM356 1296q0 -36 20 -60q24 -24 56 -24t56 24q20 24 20 60q0 28 -20 56q-24 24 -56 24t-56 -24q-20 -28 -20 -56z" />
<glyph unicode="&#xe6;" horiz-adv-x="1648" d="M-24 308q0 164 98 234t246 94q24 0 50 4t62 12q180 16 180 100q0 32 -14 42t-34 22q-36 28 -132 28q-80 0 -128 -32q-20 -20 -32 -44h-268q16 128 108 200q116 92 312 92q220 0 332 -76q28 -20 32 -24q116 100 300 100q232 0 360 -140q124 -144 124 -404v-26v-18v-14v-10 h-676q0 -120 56 -180q56 -64 152 -64q60 0 116 28q44 32 68 88h272q-44 -164 -168 -252q-120 -88 -300 -88q-208 0 -332 124q-104 -84 -244 -104t-232 -20q-156 0 -232 84q-76 80 -76 244zM236 312q0 -60 36 -88q36 -36 100 -36q116 0 176 64q68 68 68 172v100 q-68 -36 -156 -52q-48 -12 -70 -16l-22 -4q-72 -20 -104 -52q-28 -28 -28 -88zM896 624h396q0 96 -52 156q-52 52 -148 52q-88 0 -140 -52q-52 -60 -56 -156z" />
<glyph unicode="&#xe7;" horiz-adv-x="984" d="M-24 540q0 256 124 400q128 148 356 148q240 0 372 -144q72 -88 104 -204h-280q-20 40 -40 60q-52 56 -148 56q-88 0 -144 -56q-72 -80 -72 -264t72 -260q52 -64 156 -64q68 0 116 28q12 4 22 14l22 22q8 12 32 32t72 20h200q-44 -168 -168 -256q-124 -92 -312 -92 q-228 0 -356 148q-128 144 -128 412zM232 -120q0 72 68 92q48 20 108 0t118 -42t112 -24t98 46q0 -72 -6 -120t-70 -60q-56 -12 -116 12t-118 44t-108 18t-86 -70v104z" />
<glyph unicode="&#xe8;" horiz-adv-x="1000" d="M-24 540q0 256 124 400q128 148 356 148q240 0 372 -144q128 -148 128 -412v-28v-16q0 -20 -4 -28h-692q4 -124 60 -184q52 -64 156 -64q68 0 116 28q12 4 22 14l22 22q4 12 30 32t74 20h200q-44 -168 -168 -256q-124 -92 -312 -92q-228 0 -356 148q-128 144 -128 412z M204 1412h176q36 0 56 -18t32 -30l108 -204h-128zM260 640h408q-8 108 -56 160q-52 56 -148 56q-88 0 -144 -56t-60 -160z" />
<glyph unicode="&#xe9;" horiz-adv-x="1000" d="M-24 540q0 256 124 400q128 148 356 148q240 0 372 -144q128 -148 128 -412v-28v-16q0 -20 -4 -28h-692q4 -124 60 -184q52 -64 156 -64q68 0 116 28q12 4 22 14l22 22q4 12 30 32t74 20h200q-44 -168 -168 -256q-124 -92 -312 -92q-228 0 -356 148q-128 144 -128 412z M260 640h408q-8 108 -56 160q-52 56 -148 56q-88 0 -144 -56t-60 -160zM372 1160l112 204q8 12 28 30t56 18h180l-244 -252h-132z" />
<glyph unicode="&#xea;" horiz-adv-x="1000" d="M-24 540q0 256 124 400q128 148 356 148q240 0 372 -144q128 -148 128 -412v-28v-16q0 -20 -4 -28h-692q4 -124 60 -184q52 -64 156 -64q68 0 116 28q12 4 22 14l22 22q4 12 30 32t74 20h200q-44 -168 -168 -256q-124 -92 -312 -92q-228 0 -356 148q-128 144 -128 412z M184 1160l128 152q60 80 152 80q88 0 152 -80l128 -152h-160l-124 132l-84 -88q-24 -24 -42 -34t-54 -10h-96zM260 640h408q-8 108 -56 160q-52 56 -148 56q-88 0 -144 -56t-60 -160z" />
<glyph unicode="&#xeb;" horiz-adv-x="1000" d="M-24 540q0 256 124 400q128 148 356 148q240 0 372 -144q128 -148 128 -412v-28v-16q0 -20 -4 -28h-692q4 -124 60 -184q52 -64 156 -64q68 0 116 28q12 4 22 14l22 22q4 12 30 32t74 20h200q-44 -168 -168 -256q-124 -92 -312 -92q-228 0 -356 148q-128 144 -128 412z M192 1160v180h112q68 0 68 -68v-112h-180zM260 640h408q-8 108 -56 160q-52 56 -148 56q-88 0 -144 -56t-60 -160zM556 1160v180h112q68 0 68 -68v-112h-180z" />
<glyph unicode="&#xec;" horiz-adv-x="364" d="M-156 1408h172q36 0 56 -16t28 -28l112 -204h-132zM24 0v1064h144q56 0 96 -40t40 -96v-928h-280z" />
<glyph unicode="&#xed;" horiz-adv-x="364" d="M24 0v1064h144q56 0 96 -40t40 -96v-928h-280zM76 1160l108 204q8 12 28 28t56 16h180l-244 -248h-128z" />
<glyph unicode="&#xee;" horiz-adv-x="364" d="M-112 1160l128 148q60 84 152 84q80 0 152 -84l124 -148h-160l-124 132l-80 -92q-40 -40 -96 -40h-96zM24 0v1064h144q56 0 96 -40t40 -96v-928h-280z" />
<glyph unicode="&#xef;" horiz-adv-x="364" d="M-104 1160v180h112q68 0 68 -68v-112h-180zM28 0v1064h140q56 0 96 -40t40 -96v-928h-276zM256 1160v180h116q64 0 64 -68v-112h-180z" />
<glyph unicode="&#xf1;" horiz-adv-x="972" d="M0 0v624q0 272 142 364t314 100q176 0 324 -92t148 -372v-624h-140q-60 0 -98 38t-38 98v544q0 96 -58 140t-130 44t-128 -44t-56 -140v-680h-280zM216 1156v108q0 60 64 92q48 16 108 -4t118 -40t112 -24t98 48q0 -76 -6 -124t-70 -60q-56 -12 -116 12t-116 44t-108 16 t-84 -68z" />
<glyph unicode="&#xf2;" horiz-adv-x="1000" d="M-24 544q0 108 30 216t94 180q104 120 268 142t296 -26q152 -60 224 -208q68 -132 68 -308q0 -128 -28 -220t-72 -160q-100 -132 -244 -160q-132 -36 -266 -6t-214 102q-84 72 -120 194t-36 254zM204 1412h180q32 0 52 -18t32 -30l108 -204h-128zM248 526q8 -182 68 -254 q24 -32 84 -54t122 -4t110 90t52 232q0 144 -46 216t-106 92t-120 2t-88 -46q-84 -92 -76 -274z" />
<glyph unicode="&#xf3;" horiz-adv-x="1000" d="M-24 544q0 108 30 216t94 180q104 120 268 142t296 -26q152 -60 224 -208q68 -132 68 -308q0 -128 -28 -220t-72 -160q-100 -132 -244 -160q-132 -36 -266 -6t-214 102q-84 72 -120 194t-36 254zM248 526q8 -182 68 -254q24 -32 84 -54t122 -4t110 90t52 232 q0 144 -46 216t-106 92t-120 2t-88 -46q-84 -92 -76 -274zM372 1160l112 204q8 12 28 30t56 18h180l-244 -252h-132z" />
<glyph unicode="&#xf4;" horiz-adv-x="1000" d="M-24 544q0 108 30 216t94 180q104 120 268 142t296 -26q152 -60 224 -208q68 -132 68 -308q0 -128 -28 -220t-72 -160q-100 -132 -244 -160q-132 -36 -266 -6t-214 102q-84 72 -120 194t-36 254zM184 1160l128 152q60 80 152 80q88 0 152 -80l128 -152h-160l-124 132 l-84 -88q-24 -24 -42 -34t-54 -10h-96zM248 526q8 -182 68 -254q24 -32 84 -54t122 -4t110 90t52 232q0 144 -46 216t-106 92t-120 2t-88 -46q-84 -92 -76 -274z" />
<glyph unicode="&#xf5;" horiz-adv-x="1000" d="M-24 544q0 108 30 216t94 180q104 120 268 142t296 -26q152 -60 224 -208q68 -132 68 -308q0 -128 -28 -220t-72 -160q-100 -132 -244 -160q-132 -36 -266 -6t-214 102q-84 72 -120 194t-36 254zM212 1160v104q0 68 68 92q48 16 108 -4t118 -40t112 -24t98 48 q0 -76 -6 -122t-70 -58q-56 -12 -116 12t-118 42t-110 16t-84 -66zM248 526q8 -182 68 -254q24 -32 84 -54t122 -4t110 90t52 232q0 144 -46 216t-106 92t-120 2t-88 -46q-84 -92 -76 -274z" />
<glyph unicode="&#xf6;" horiz-adv-x="1000" d="M-24 544q0 108 30 216t94 180q104 120 268 142t296 -26q152 -60 224 -208q68 -132 68 -308q0 -128 -28 -220t-72 -160q-100 -132 -244 -160q-132 -36 -266 -6t-214 102q-84 72 -120 194t-36 254zM192 1160v180h112q68 0 68 -68v-112h-180zM248 526q8 -182 68 -254 q24 -32 84 -54t122 -4t110 90t52 232q0 144 -46 216t-106 92t-120 2t-88 -46q-84 -92 -76 -274zM556 1160v180h112q68 0 68 -68v-112h-180z" />
<glyph unicode="&#xf7;" horiz-adv-x="948" d="M0 592v96q0 88 88 88h816v-184h-904zM320 388q0 52 38 90t94 38q128 0 128 -128q0 -56 -38 -94t-90 -38q-56 0 -94 38t-38 94zM320 980q0 52 38 92t94 40q52 0 90 -40t38 -92t-38 -90t-90 -38q-56 0 -94 38t-38 90z" />
<glyph unicode="&#xf8;" horiz-adv-x="1052" d="M-76 0l144 172q-52 72 -74 170t-22 202q0 108 32 216t92 180q104 120 268 142t296 -26q56 -20 120 -68l68 76h156l-144 -168q20 -36 28 -48q64 -136 64 -308q0 -128 -28 -220t-72 -156q-96 -132 -244 -164q-124 -36 -252 -10t-212 94l-68 -84h-152zM248 610 q-12 -122 12 -218l348 400q-68 76 -160 62t-128 -54q-60 -68 -72 -190zM312 276q24 -32 84 -56t122 -6t110 90t52 232q0 92 -16 140z" />
<glyph unicode="&#xf9;" horiz-adv-x="972" d="M0 440v624h280v-680q0 -96 56 -140t128 -44t130 44t58 140v544q0 56 38 96t98 40h140v-624q0 -284 -148 -372t-324 -88q-172 8 -314 96t-142 364zM204 1412h180q36 0 54 -18l30 -30l112 -204h-132z" />
<glyph unicode="&#xfa;" horiz-adv-x="972" d="M0 440v624h280v-680q0 -96 56 -140t128 -44t130 44t58 140v544q0 56 38 96t98 40h140v-624q0 -284 -148 -372t-324 -88q-172 8 -314 96t-142 364zM376 1160l112 204q4 12 26 30t58 18h176l-244 -252h-128z" />
<glyph unicode="&#xfb;" horiz-adv-x="972" d="M0 440v624h280v-680q0 -96 56 -140t128 -44t130 44t58 140v544q0 56 38 96t98 40h140v-624q0 -284 -148 -372t-324 -88q-172 8 -314 96t-142 364zM184 1160l132 152q56 80 152 80q80 0 152 -80l124 -152h-160l-120 132l-84 -88q-24 -24 -44 -34t-56 -10h-96z" />
<glyph unicode="&#xfc;" horiz-adv-x="972" d="M0 440v624h280v-680q0 -96 56 -140t128 -44t130 44t58 140v544q0 56 38 96t98 40h140v-624q0 -284 -148 -372t-324 -88q-172 8 -314 96t-142 364zM192 1160v180h116q68 0 68 -68v-112h-184zM556 1160v180h112q68 0 68 -68v-112h-180z" />
<glyph unicode="&#x2000;" horiz-adv-x="872" />
<glyph unicode="&#x2001;" horiz-adv-x="1744" />
<glyph unicode="&#x2002;" horiz-adv-x="872" />
<glyph unicode="&#x2003;" horiz-adv-x="1744" />
<glyph unicode="&#x2004;" horiz-adv-x="581" />
<glyph unicode="&#x2005;" horiz-adv-x="436" />
<glyph unicode="&#x2006;" horiz-adv-x="290" />
<glyph unicode="&#x2007;" horiz-adv-x="290" />
<glyph unicode="&#x2008;" horiz-adv-x="218" />
<glyph unicode="&#x2009;" horiz-adv-x="348" />
<glyph unicode="&#x200a;" horiz-adv-x="96" />
<glyph unicode="&#x2010;" horiz-adv-x="576" d="M0 420v116q0 108 108 108h444v-224h-552z" />
<glyph unicode="&#x2011;" horiz-adv-x="576" d="M0 420v116q0 108 108 108h444v-224h-552z" />
<glyph unicode="&#x2012;" horiz-adv-x="576" d="M0 420v116q0 108 108 108h444v-224h-552z" />
<glyph unicode="&#x2013;" horiz-adv-x="1048" d="M0 420v116q0 108 200 108h824v-224h-1024z" />
<glyph unicode="&#x2014;" horiz-adv-x="2072" d="M0 420v116q0 108 401 108h1647v-224h-2048z" />
<glyph unicode="&#x202f;" horiz-adv-x="348" />
<glyph unicode="&#x205f;" horiz-adv-x="436" />
<glyph unicode="&#xe000;" horiz-adv-x="1160" d="M0 0v1160h1160v-1160h-1160z" />
</font>
</defs>
</svg>
